<svg version="1.1" overflow="visible" preserveAspectRatio="none" viewBox="0 0 514 514" id="Capa_1_1536355539613" xmlns="http://www.w3.org/2000/svg" xmlns:xlink="http://www.w3.org/1999/xlink" x="0px" y="0px" xml:space="preserve" width="116" height="116"><g transform="translate(1, 1)"><style type="text/css">
	.st0_1536355539613{fill:#444545;}
	.st1_1536355539613{fill:#C8C8C8;}
	.st2_1536355539613{fill:#FFFFFF;}
	.st3_1536355539613{fill:#137DB8;}
	.st4_1536355539613{fill:#F16224;}
	.st5_1536355539613{fill:#232323;}
</style><rect x="277.7" y="251" transform="matrix(0.7071 -0.7071 0.7071 0.7071 -120.904 291.9523)" class="st0_1536355539613" width="28.5" height="81.8" vector-effect="non-scaling-stroke"/><circle class="st1_1536355539613" cx="167.8" cy="167.7" r="160.3" vector-effect="non-scaling-stroke"/><circle class="st2_1536355539613" cx="167.8" cy="167.7" r="123.4" vector-effect="non-scaling-stroke"/><path class="st3_1536355539613" d="M498.8,476.7l-22,22c-7.7,7.7-20.1,7.7-27.7,0L296.2,345.9c-7.7-7.7-7.7-20.1,0-27.7l22-22&#10;&#9;c7.7-7.7,20.1-7.7,27.7,0L498.8,449C506.4,456.6,506.4,469.1,498.8,476.7z" vector-effect="non-scaling-stroke"/><path class="st3_1536355539613" d="M345.9,296.1L498.8,449c7.7,7.7,7.7,20.1,0,27.7L484,491.5c7.7-7.7,7.7-20.1,0-27.7L331.1,310.9&#10;&#9;c-7.7-7.7-20.1-7.7-27.7,0l14.8-14.8C325.8,288.5,338.3,288.5,345.9,296.1z" vector-effect="non-scaling-stroke"/><rect x="395.8" y="416.6" transform="matrix(0.7071 -0.7071 0.7071 0.7071 -178.489 430.9663)" class="st4_1536355539613" width="70.3" height="28.7" vector-effect="non-scaling-stroke"/><path class="st4_1536355539613" d="M167.8,204.3c-9.7,0-17.5-7.8-17.5-17.5c0-16.8,9.7-32,24.6-38.9c6.5-3,10.4-9.5,10-16.7&#10;&#9;c-0.5-8.4-7.5-15.5-16-16c-4.8-0.3-9.4,1.3-12.9,4.6c-3.5,3.3-5.4,7.7-5.4,12.5c0,9.7-7.8,17.5-17.5,17.5s-17.5-7.8-17.5-17.5&#10;&#9;c0-14.3,6-28.2,16.4-38c10.6-10,24.4-14.9,39-14c26.2,1.6,47.1,22.6,48.7,48.7c1.3,21.7-10.5,41.6-30.3,50.7c-2.6,1.2-4.3,4-4.3,7.1&#10;&#9;C185.3,196.4,177.4,204.3,167.8,204.3z" vector-effect="non-scaling-stroke"/><path class="st4_1536355539613" d="M167.8,257.4c-9.7,0-17.5-7.8-17.5-17.5v-1.1c0-9.7,7.8-17.5,17.5-17.5s17.5,7.8,17.5,17.5v1.1&#10;&#9;C185.3,249.6,177.4,257.4,167.8,257.4z" vector-effect="non-scaling-stroke"/><path class="st5_1536355539613" d="M46.6,143.1c-4.1-0.6-7.9,2.3-8.5,6.4c-5.8,41.1,7.7,81.5,37.1,110.8c24.7,24.7,57.6,38.3,92.5,38.3&#10;&#9;s67.8-13.6,92.5-38.3c24.7-24.7,38.3-57.6,38.3-92.5c0-35-13.6-67.8-38.3-92.5c-51-51-134-51-185.1,0&#10;&#9;c-12.5,12.5-22.2,27.1-28.7,43.3c-1.6,3.8,0.3,8.2,4.1,9.8c3.8,1.6,8.2-0.3,9.8-4.1c5.8-14.4,14.4-27.3,25.5-38.3&#10;&#9;c45.2-45.2,118.7-45.2,163.8,0c21.9,21.9,33.9,51,33.9,81.9s-12.1,60-33.9,81.9c-21.9,21.9-51,33.9-81.9,33.9s-60-12.1-81.9-33.9&#10;&#9;c-26-25.9-37.9-61.7-32.8-98.1C53.6,147.4,50.7,143.6,46.6,143.1z" vector-effect="non-scaling-stroke"/><path class="st5_1536355539613" d="M504.1,443.7L351.2,290.8c-5.1-5.1-11.9-7.9-19.2-7.9c-5.1,0-10,1.4-14.3,4.1l-17-17&#10;&#9;c13.7-17.8,23.7-38.1,29.3-59.8c1-4-1.4-8.1-5.4-9.1c-4-1-8.1,1.4-9.1,5.4c-6.8,26.1-20.6,50.1-39.8,69.3&#10;&#9;c-59.6,59.6-156.5,59.6-216,0C30.9,246.9,15,208.5,15,167.7c0-40.8,15.9-79.2,44.7-108c59.6-59.6,156.5-59.6,216,0&#10;&#9;c31.2,31.2,47.4,74.3,44.4,118.4c-0.3,4.1,2.8,7.7,7,8c4.1,0.3,7.7-2.8,8-7c3.3-48.4-14.5-95.8-48.7-130&#10;&#9;c-65.4-65.4-171.8-65.4-237.2,0C17.4,80.8,0,122.9,0,167.7c0,44.8,17.4,86.9,49.1,118.6c32.7,32.7,75.7,49.1,118.6,49.1&#10;&#9;c36.1,0,72.2-11.6,102.2-34.7l17,17c-6.5,10.5-5.2,24.4,3.9,33.5l34.8,34.8c2.9,2.9,7.7,2.9,10.6,0c2.9-2.9,2.9-7.7,0-10.6&#10;&#9;l-34.8-34.8c-4.7-4.7-4.7-12.4,0-17.1l22-22c2.3-2.3,5.3-3.5,8.6-3.5s6.3,1.3,8.6,3.5l76.5,76.5L378,417.1L355.9,395&#10;&#9;c-2.9-2.9-7.7-2.9-10.6,0c-2.9,2.9-2.9,7.7,0,10.6l98.5,98.5c5.3,5.3,12.2,7.9,19.2,7.9c6.9,0,13.9-2.6,19.2-7.9l22-22&#10;&#9;C514.6,471.5,514.6,454.3,504.1,443.7z M286.4,286.3c1.6-1.6,3.1-3.2,4.7-4.9l15.6,15.6l-9.5,9.5L281.5,291&#10;&#9;C283.1,289.5,284.8,287.9,286.4,286.3z M408.8,447.9l-2.2-2.2l39.1-39.1l9.7,9.7l-39.1,39.1L408.8,447.9z M427.8,388.6l7.3,7.3&#10;&#9;L396,435l-7.3-7.3L427.8,388.6z M493.5,471.4l-22,22c-4.7,4.7-12.4,4.7-17.1,0L426.9,466l39.1-39.1l27.5,27.5&#10;&#9;C498.2,459,498.2,466.7,493.5,471.4z" vector-effect="non-scaling-stroke"/><path class="st5_1536355539613" d="M192.8,186.4c22.5-10.4,36-33.1,34.5-57.9c-1.9-29.9-25.8-53.9-55.8-55.8c-16.6-1-32.5,4.7-44.6,16.1&#10;&#9;c-11.9,11.2-18.8,27.1-18.8,43.5c0,13.8,11.2,25,25,25s25-11.2,25-25c0-2.7,1.1-5.2,3-7c2-1.9,4.5-2.8,7.3-2.6c4.7,0.3,8.7,4.3,9,9&#10;&#9;c0.3,4.1-2,7.8-5.6,9.4c-17.6,8.1-29,26-29,45.7c0,13.8,11.2,25,25,25s25-11.2,25-25C192.8,186.6,192.8,186.4,192.8,186.4z&#10;&#9; M177.8,186.8c0,5.5-4.5,10-10,10s-10-4.5-10-10c0-13.8,8-26.4,20.3-32.1c9.3-4.3,15-13.7,14.3-24c-0.8-12.1-10.9-22.2-23-23&#10;&#9;c-0.5,0-1.1-0.1-1.6-0.1c-6.3,0-12.2,2.3-16.8,6.7c-5,4.7-7.8,11.1-7.8,18c0,5.5-4.5,10-10,10c-5.5,0-10-4.5-10-10&#10;&#9;c0-12.3,5.1-24.1,14.1-32.5c9.1-8.5,20.9-12.8,33.4-12c22.4,1.4,40.3,19.3,41.7,41.7c1.2,18.6-9,35.6-25.9,43.4&#10;&#9;C181.1,175.2,177.8,180.7,177.8,186.8z" vector-effect="non-scaling-stroke"/><path class="st5_1536355539613" d="M167.8,213.8c-13.8,0-25,11.2-25,25v1.1c0,13.8,11.2,25,25,25s25-11.2,25-25v-1.1&#10;&#9;C192.8,225,181.5,213.8,167.8,213.8z M177.8,239.9c0,5.5-4.5,10-10,10s-10-4.5-10-10v-1.1c0-5.5,4.5-10,10-10s10,4.5,10,10V239.9z" vector-effect="non-scaling-stroke"/></g></svg>