<svg version="1.1" overflow="visible" preserveAspectRatio="none" viewBox="0 0 498 498" id="Capa_1_1527193660592" xmlns="http://www.w3.org/2000/svg" xmlns:xlink="http://www.w3.org/1999/xlink" x="0px" y="0px"
     xml:space="preserve" width="79" height="79"><g transform="translate(1, 1)"><style type="text/css">
	.st0_1527193660592{fill:#C8C8C8;}
	.st1_1527193660592{fill:#444545;}
	.st2_1527193660592{fill:#137DB8;}
	.st3_1527193660592{fill:#F16224;}
</style><path class="st0_1527193660592" d="M288,285.2h32V368l16,16h64v32h-88c0,0-24,6-24-24V285.2z" vector-effect="non-scaling-stroke"/><path class="st1_1527193660592"
                                                                                                                                              d="M110.7,67.7c0,0-40.9,11.3-59.3,60.3h-35C16.4,128,22.5,24.5,110.7,67.7z"
                                                                                                                                              vector-effect="non-scaling-stroke"/><path class="st1_1527193660592"
                                                                                                                                                                                        d="M480,320c0,0-32-7-32,24v112c0,0-2,36,32,24V320z"
                                                                                                                                                                                        vector-effect="non-scaling-stroke"/><path
        class="st2_1527193660592" d="M133.3,80.1c0,0,32.4,20.3,26.7,63.9h47.5c0,0,9.2,61.9-56.6,78.4c0,0-52.9,17.6-86.9-46.4&#10;&#9;C64,176,39.7,80.3,133.3,80.1z" vector-effect="non-scaling-stroke"/><path
        class="st0_1527193660592" d="M138.4,64c0,0,29.9,29,37.2,64H480c0,0,11-72-72-64H138.4z" vector-effect="non-scaling-stroke"/><circle class="st3_1527193660592" cx="304" cy="240" r="35.6"
                                                                                                                                           vector-effect="non-scaling-stroke"/><g>
	<g>
		<path d="M156.8,164c-4.3,7.4-12.2,12-20.8,12c-13.2,0-24-10.8-24-24s10.8-24,24-24v-16c-22.1,0-40,17.9-40,40s17.9,40,40,40&#10;&#9;&#9;&#9;c14.2,0,27.5-7.7,34.6-20L156.8,164z" vector-effect="non-scaling-stroke"/>
	</g>
</g><g>
	<g>
		<path d="M352,240h72c39.7,0,72-32.3,72-72v-48c0-39.7-32.3-72-72-72h-98.2l-16-48H202.2l-16,48H88C39.5,48,0,87.5,0,136v8h48.4&#10;&#9;&#9;&#9;c-0.2,2.6-0.4,5.3-0.4,8c0,48.5,39.5,88,88,88h120c0,14.2,6.2,26.9,16,35.7V392c0,22.1,17.9,40,40,40h120v24c0,22.1,17.9,40,40,40&#10;&#9;&#9;&#9;h24V304h-24c-22.1,0-40,17.9-40,40v24h-96v-92.3C345.8,266.9,352,254.2,352,240z M448,344c0-13.2,10.8-24,24-24h8v160h-8&#10;&#9;&#9;&#9;c-13.2,0-24-10.8-24-24V344z M213.8,16h84.5l10.7,32H203.1L213.8,16z M424,64c30.9,0,56,25.1,56,56v8H175.6&#10;&#9;&#9;&#9;c-2.4-26.5-16.6-49.5-37.2-64H424z M16.4,128C20.4,92,51,64,88,64c8,0,15.6,1.3,22.7,3.7C82.1,76.3,59.6,99.2,51.4,128H16.4z&#10;&#9;&#9;&#9; M64,152c0-38.8,30.9-70.4,69.3-71.9C149.6,93.4,160,113.5,160,136v8h47.5c0.3,2.6,0.5,5.3,0.5,8c0,39.7-32.3,72-72,72&#10;&#9;&#9;&#9;S64,191.7,64,152z M258.8,224h-72.4c22.7-15.9,37.6-42.2,37.6-72c0-2.7-0.2-5.3-0.4-8H480v24c0,30.9-25.1,56-56,56h-74.8&#10;&#9;&#9;&#9;c-6.6-18.6-24.3-32-45.2-32S265.4,205.4,258.8,224z M416,384h16v32h-16V384z M400,384v32h-88c-13.2,0-24-10.8-24-24V285.2&#10;&#9;&#9;&#9;c5,1.8,10.4,2.8,16,2.8s11-1,16-2.8V368c0,8.8,7.2,16,16,16H400z M304,272c-17.6,0-32-14.4-32-32s14.4-32,32-32s32,14.4,32,32&#10;&#9;&#9;&#9;S321.6,272,304,272z"
              vector-effect="non-scaling-stroke"/>
	</g>
</g><g>
	<g>
		<path d="M368,160v48h64v-48H368z M416,192h-32v-16h32V192z" vector-effect="non-scaling-stroke"/>
	</g>
</g><g>
	<g>
		<rect x="184" y="80" width="128" height="16" vector-effect="non-scaling-stroke"/>
	</g>
</g><g>
	<g>
		<rect x="368" y="96" width="16" height="16" vector-effect="non-scaling-stroke"/>
	</g>
</g><g>
	<g>
		<rect x="400" y="96" width="16" height="16" vector-effect="non-scaling-stroke"/>
	</g>
</g><g>
	<g>
		<rect x="432" y="96" width="16" height="16" vector-effect="non-scaling-stroke"/>
	</g>
</g><rect x="384" y="176" class="st3_1527193660592" width="32" height="16" vector-effect="non-scaling-stroke"/><rect x="416" y="384" class="st3_1527193660592" width="16" height="32" vector-effect="non-scaling-stroke"/><polygon
        class="st3_1527193660592" points="203.1,48 213.8,16 298.2,16 308.9,48 " vector-effect="non-scaling-stroke"/></g></svg>
